<?xml version="1.0" standalone="no"?><!DOCTYPE svg PUBLIC "-//W3C//DTD SVG 1.1//EN" "http://www.w3.org/Graphics/SVG/1.1/DTD/svg11.dtd"><svg t="1752911075486" class="icon" viewBox="0 0 1024 1024" version="1.1" xmlns="http://www.w3.org/2000/svg" p-id="1276" width="128" height="128" xmlns:xlink="http://www.w3.org/1999/xlink"><path d="M478.71488 33.88416c-75.76064 36.6592-123.11552 117.31456-114.82624 194.82624 8.28416 67.03616 43.8016 120.45824 104.17152 156.06784 187.03872 109.98272 419.05664-79.60576 316.06784-258.71872C722.57536 20.26496 591.17568-19.53792 478.71488 33.88416z m187.03872 67.03616c85.23264 52.37248 80.49664 188.53888-9.472 229.39136-104.17152 48.18432-213.07904-15.71328-213.07904-125.696 0-41.89696 5.91872-54.46656 40.24832-84.84352s48.5376-35.61472 98.2528-35.61472c33.14688 0.00512 68.6592 7.33696 84.04992 16.76288z" fill="#2c2c2c" p-id="1277"></path><path d="M797.15328 340.7872c-63.9232 115.22048-89.96864 148.736-164.54656 217.87136-75.76064 71.22432-105.35424 90.08128-209.53088 135.12192-67.47648 29.32736-132.5824 50.2784-147.97312 48.18432-22.49216-2.09408-36.69504-25.1392-88.78592-139.31008C120.02816 458.10176 53.73952 333.45536 25.32864 298.89024c-16.57344-19.90144-17.75616-18.85184-11.83744 10.47552 27.22304 156.06784 119.56224 465.06496 147.97312 494.39232 15.39072 17.80736 295.94624 18.85184 456.93952 2.09408 190.58688-19.90144 170.46528-27.23328-121.92768-47.13472l-106.54208-7.33184 102.9888-24.0896c114.82624-27.23328 177.56672-52.37248 261.61664-105.79456 31.96416-19.90144 62.74048-34.56512 69.84192-32.47104 5.91872 2.09408 49.72032 98.46272 94.70464 212.6336 46.16704 115.22048 86.41536 212.6336 91.15136 216.82176 11.83744 11.52-8.28416-233.57952-28.41088-358.22592-10.65472-60.75392-39.0656-187.4944-63.9232-282.81344l-44.98432-172.83072-75.76576 136.17152z" fill="#2c2c2c" p-id="1278"></path></svg>